<svg width="21" height="20" viewBox="0 0 21 20" fill="none" xmlns="http://www.w3.org/2000/svg">
<path d="M10.4999 0.399902C5.1983 0.399902 0.899902 4.6983 0.899902 9.9999C0.899902 14.4983 3.9975 18.2623 8.1735 19.3039C8.1287 19.1743 8.0999 19.0239 8.0999 18.8375V17.1967C7.7103 17.1967 7.0575 17.1967 6.8935 17.1967C6.2367 17.1967 5.6527 16.9143 5.3695 16.3895C5.0551 15.8063 5.0007 14.9143 4.2215 14.3687C3.9903 14.1871 4.1663 13.9799 4.4327 14.0079C4.9247 14.1471 5.3327 14.4847 5.7167 14.9855C6.0991 15.4871 6.2791 15.6007 6.9935 15.6007C7.3399 15.6007 7.8583 15.5807 8.3463 15.5039C8.6087 14.8375 9.0623 14.2239 9.6167 13.9343C6.4199 13.6055 4.8943 12.0151 4.8943 9.8559C4.8943 8.9263 5.2903 8.0271 5.9631 7.2695C5.7423 6.5175 5.4647 4.9839 6.0479 4.3999C7.4863 4.3999 8.3559 5.3327 8.5647 5.5847C9.2815 5.3391 10.0687 5.1999 10.8959 5.1999C11.7247 5.1999 12.5151 5.3391 13.2335 5.5863C13.4399 5.3359 14.3103 4.3999 15.7519 4.3999C16.3375 4.9847 16.0567 6.5247 15.8335 7.2751C16.5023 8.0311 16.8959 8.9279 16.8959 9.8559C16.8959 12.0135 15.3727 13.6031 12.1807 13.9335C13.0591 14.3919 13.6999 15.6799 13.6999 16.6503V18.8375C13.6999 18.9207 13.6815 18.9807 13.6719 19.0519C17.4127 17.7407 20.0999 14.1887 20.0999 9.9999C20.0999 4.6983 15.8015 0.399902 10.4999 0.399902Z" fill="white"/>
</svg>
