<svg width="21" height="20" viewBox="0 0 21 20" fill="none" xmlns="http://www.w3.org/2000/svg">
<path d="M6.49834 0.399902C3.41114 0.399902 0.899902 2.91347 0.899902 6.00146V14.0015C0.899902 17.0887 3.41347 19.5999 6.50146 19.5999H14.5015C17.5887 19.5999 20.0999 17.0863 20.0999 13.9983V5.99834C20.0999 2.91114 17.5863 0.399902 14.4983 0.399902H6.49834ZM16.0999 3.5999C16.5415 3.5999 16.8999 3.9583 16.8999 4.3999C16.8999 4.8415 16.5415 5.1999 16.0999 5.1999C15.6583 5.1999 15.2999 4.8415 15.2999 4.3999C15.2999 3.9583 15.6583 3.5999 16.0999 3.5999ZM10.4999 5.1999C13.1471 5.1999 15.2999 7.3527 15.2999 9.9999C15.2999 12.6471 13.1471 14.7999 10.4999 14.7999C7.8527 14.7999 5.6999 12.6471 5.6999 9.9999C5.6999 7.3527 7.8527 5.1999 10.4999 5.1999ZM10.4999 6.7999C9.65121 6.7999 8.83728 7.13704 8.23716 7.73716C7.63704 8.33728 7.2999 9.15121 7.2999 9.9999C7.2999 10.8486 7.63704 11.6625 8.23716 12.2626C8.83728 12.8628 9.65121 13.1999 10.4999 13.1999C11.3486 13.1999 12.1625 12.8628 12.7626 12.2626C13.3628 11.6625 13.6999 10.8486 13.6999 9.9999C13.6999 9.15121 13.3628 8.33728 12.7626 7.73716C12.1625 7.13704 11.3486 6.7999 10.4999 6.7999Z" fill="white"/>
</svg>
