<svg width="15" height="15" viewBox="0 0 15 15" fill="none" xmlns="http://www.w3.org/2000/svg">
<path d="M12.0333 0.699951C11.4321 0.699951 10.8556 0.93876 10.4305 1.36384C10.0054 1.78892 9.76662 2.36546 9.76662 2.96662C9.76763 3.12595 9.78543 3.28472 9.81974 3.44032L4.67326 6.01356C4.461 5.76918 4.19886 5.5731 3.90448 5.43851C3.6101 5.30392 3.29031 5.23394 2.96662 5.23328C2.36546 5.23328 1.78892 5.47209 1.36384 5.89718C0.93876 6.32226 0.699951 6.89879 0.699951 7.49995C0.699951 8.10111 0.93876 8.67764 1.36384 9.10273C1.78892 9.52781 2.36546 9.76662 2.96662 9.76662C3.29041 9.76625 3.61036 9.69652 3.90494 9.56212C4.19952 9.42772 4.46188 9.23176 4.67437 8.98745L9.81753 11.5596C9.78397 11.7153 9.7669 11.874 9.76662 12.0333C9.76662 12.6344 10.0054 13.211 10.4305 13.6361C10.8556 14.0611 11.4321 14.3 12.0333 14.3C12.6344 14.3 13.211 14.0611 13.6361 13.6361C14.0611 13.211 14.3 12.6344 14.3 12.0333C14.3 11.4321 14.0611 10.8556 13.6361 10.4305C13.211 10.0054 12.6344 9.76662 12.0333 9.76662C11.7095 9.76698 11.3895 9.83671 11.095 9.97112C10.8004 10.1055 10.538 10.3015 10.3255 10.5458L5.18237 7.97365C5.21594 7.81798 5.233 7.6592 5.23328 7.49995C5.2322 7.34099 5.21439 7.18259 5.18016 7.02736L10.3266 4.45412C10.539 4.69829 10.8012 4.89416 11.0956 5.02856C11.3899 5.16296 11.7097 5.23276 12.0333 5.23328C12.6344 5.23328 13.211 4.99448 13.6361 4.56939C14.0611 4.14431 14.3 3.56778 14.3 2.96662C14.3 2.36546 14.0611 1.78892 13.6361 1.36384C13.211 0.93876 12.6344 0.699951 12.0333 0.699951Z" fill="white"/>
</svg>
