<svg width="21" height="18" viewBox="0 0 21 18" fill="none" xmlns="http://www.w3.org/2000/svg">
<path d="M18.6233 0.187549C18.3633 0.199021 18.121 0.274767 17.9077 0.360986C17.7079 0.441357 16.9445 0.768777 15.7421 1.28442C14.5386 1.80052 12.9451 2.48467 11.2452 3.21567C7.84547 4.67768 4.02327 6.32338 2.06553 7.16567C1.99191 7.19733 1.73504 7.2794 1.4624 7.49224C1.18977 7.70508 0.899902 8.14612 0.899902 8.63755C0.899902 9.03382 1.08876 9.4275 1.32646 9.66255C1.56417 9.89759 1.8157 10.0137 2.03115 10.1016C2.81289 10.4206 5.23738 11.4127 5.69521 11.6C5.85634 12.0936 6.73389 14.7781 6.9374 15.436C7.07156 15.8701 7.19926 16.1421 7.36553 16.3579C7.44866 16.4658 7.5453 16.5603 7.6624 16.6344C7.70921 16.664 7.76053 16.6869 7.8124 16.7079L7.81553 16.7094C7.82748 16.7142 7.83778 16.7224 7.8499 16.7266C7.87277 16.7346 7.88806 16.7356 7.91865 16.7422C8.04051 16.7816 8.16354 16.8063 8.27334 16.8063C8.74147 16.8063 9.02803 16.5485 9.02803 16.5485L9.04521 16.536L11.453 14.4532L14.3733 17.2157C14.4145 17.2738 14.7979 17.8 15.6437 17.8C16.1458 17.8 16.5442 17.5481 16.7999 17.2797C17.0556 17.0114 17.215 16.7295 17.2827 16.375V16.3735C17.3461 16.0386 20.0374 2.22192 20.0374 2.22192L20.0327 2.24067C20.1115 1.88106 20.1321 1.54616 20.0452 1.21567C19.9583 0.885186 19.7292 0.568761 19.4452 0.398486C19.1612 0.228249 18.8834 0.176076 18.6233 0.187549ZM18.4733 1.85942C18.4695 1.88277 18.4762 1.87103 18.4702 1.89849L18.4687 1.90786L18.4671 1.91724C18.4671 1.91724 15.8091 15.5571 15.7108 16.0766C15.718 16.0374 15.6852 16.1154 15.6515 16.1625C15.6038 16.1297 15.5062 16.0875 15.5062 16.0875L15.4905 16.0704L11.5015 12.2969L8.68115 14.7344L9.52022 11.375C9.52022 11.375 14.7652 5.94574 15.0812 5.62974C15.3356 5.37694 15.389 5.28881 15.389 5.20161C15.389 5.08481 15.3281 5.00005 15.1921 5.00005C15.0697 5.00005 14.9051 5.11905 14.8171 5.17505C13.6706 5.90588 8.63736 8.83936 6.38115 10.1516C6.0226 10.0049 3.53163 8.98523 2.6874 8.64067C2.69379 8.63787 2.69169 8.63887 2.69834 8.63599C4.6566 7.79348 8.47721 6.14778 11.8765 4.68599C13.5761 3.95509 15.1708 3.27042 16.3733 2.75474C17.5573 2.247 18.38 1.89756 18.4733 1.85942Z" fill="white"/>
</svg>
